# xmcd
#
# Track frame offsets:
#	150
#	16040
#	30868
#	50291
#	64810
#	82464
#	102230
#	119693
#	138673
#	156128
#	182984
#	199345
#	219024
#	230525
#
# Disc length: 3550 seconds
#
# Revision: 1
# Processed by: cddbd v1.5.2PL0 Copyright (c) Steve Scherf et al.
# Submitted via: audiograbber 1.83.01
#
DISCID=c10ddc0e
DTITLE=J. Tex and The Volunteers - Lost Between Clouds Of Tumbleweed and Space
DYEAR=1900
DGENRE=Country
TTITLE0=Day By Day
TTITLE1=Nine Pound Hammer
TTITLE2=White Paper Plane
TTITLE3=What A Bummer
TTITLE4=Left With Someone Dear...
TTITLE5=My Kind Of Town
TTITLE6=Me And Bobby Mcgee
TTITLE7=Bring U Down, Down
TTITLE8=Sometimes I feel Like An Angel
TTITLE9=Tennessee
TTITLE10=Going Back To Memphis
TTITLE11=Deep, Deep Valley
TTITLE12=Good Morning, Mr. Railroadman
TTITLE13=Baby Tonight
EXTD=
EXTT0=
EXTT1=
EXTT2=
EXTT3=
EXTT4=
EXTT5=
EXTT6=
EXTT7=
EXTT8=
EXTT9=
EXTT10=
EXTT11=
EXTT12=
EXTT13=
PLAYORDER=
